<svg width="22" height="20" viewBox="0 0 22 20" fill="none" xmlns="http://www.w3.org/2000/svg">
<path d="M8 6C8 7.65685 9.34315 9 11 9C12.6569 9 14 7.65685 14 6M2 14.8002V5.2002C2 4.08009 2 3.51962 2.21799 3.0918C2.40973 2.71547 2.71547 2.40973 3.0918 2.21799C3.51962 2 4.08009 2 5.2002 2H16.8002C17.9203 2 18.4796 2 18.9074 2.21799C19.2837 2.40973 19.5905 2.71547 19.7822 3.0918C20 3.5192 20 4.07899 20 5.19691V14.8036C20 15.9215 20 16.4805 19.7822 16.9079C19.5905 17.2842 19.2837 17.5905 18.9074 17.7822C18.48 18 17.921 18 16.8031 18H5.19691C4.07899 18 3.5192 18 3.0918 17.7822C2.71547 17.5905 2.40973 17.2842 2.21799 16.9079C2 16.4801 2 15.9203 2 14.8002Z" stroke="white" stroke-width="3" stroke-linecap="round" stroke-linejoin="round"/>
</svg>
